# xmcd CD database file
#
# Track frame offsets:
#	150
#	28800
#	42475
#	60767
#	80015
#	101167
#	120925
#	140192
#	152102
#	174305
#	186470
#
# Disc length: 2740 seconds
#
# Revision: 1
# Processed by: cddbd v1.4PL0 Copyright (c) Steve Scherf et al.
# Submitted via: CDex 1.50Beta7
#
DISCID=950ab20b
DTITLE=Various Artist - Windham Hill Records Sampler '93
DYEAR=1900
DGENRE=New Age
TTITLE0=Welcoming - Michael Manring
TTITLE1=Devotion - Liz Story
TTITLE2=Engravings - Ira Stein and Russel Walder
TTITLE3=Dolphins - Mike Marshall and Darol Anger
TTITLE4=Gwenlaise - Scott Cossu With Eugene Friesen
TTITLE5=Another Country - Shadowfax - Shadowfax
TTITLE6=Hot Beach - Interior
TTITLE7=New Waltz - Malcolm Dalglish - Malcolm Dalglish
TTITLE8=Marias River Breakdown - Philip Aaberg - Philip Aaberg
TTITLE9=Pittsburgh 1901 (Theme From Mrs. Soffel) - Mark Isham - Mark Isham
TTITLE10=Near Northern - Darol Anger - Barbara Higbie Quintet - Darol Anger/Barbara Higbie Quintet
EXTD=
EXTT0=
EXTT1=
EXTT2=
EXTT3=
EXTT4=
EXTT5=
EXTT6=
EXTT7=
EXTT8=
EXTT9=
EXTT10=
PLAYORDER=
